<?xml version="1.0" encoding="UTF-8" standalone="no"?>
<!-- Created with Inkscape (http://www.inkscape.org/) -->
<svg xmlns:rdf="http://www.w3.org/1999/02/22-rdf-syntax-ns#" xmlns="http://www.w3.org/2000/svg" xmlns:cc="http://web.resource.org/cc/" xmlns:dc="http://purl.org/dc/elements/1.1/" xmlns:svg="http://www.w3.org/2000/svg" xmlns:inkscape="http://www.inkscape.org/namespaces/inkscape" xmlns:sodipodi="http://sodipodi.sourceforge.net/DTD/sodipodi-0.dtd" xmlns:ns1="http://sozi.baierouge.fr" xmlns:xlink="http://www.w3.org/1999/xlink" id="svg2525" viewBox="0 0 97.8 698.34" version="1.0" inkscape:version="0.91 r13725">
  <g id="layer1" transform="translate(-297.11 -172.85)">
    <g id="g2297">
      <path id="path3175" style="fill-rule:evenodd;color:#000000;stroke:#000000;stroke-width:.11761;fill:#cccccc" d="m324.56 217.28c1.32 0.39 3.21-0.18 3.21-0.18l-0.29 6.4c-0.82-0.15-1.53 0.35-2.27 0.64l-0.65-6.86z"/>
      <path id="path3173" style="fill-rule:evenodd;color:#000000;stroke:#000000;stroke-width:.11761;fill:#e6e6e6" d="m321.29 214.47c-8.27 0.02-7.95 14.1-1.72 14.82 8.89-0.72 7.87-13.79 1.72-14.82z"/>
      <path id="path3179" style="fill-rule:evenodd;color:#000000;stroke:#000000;stroke-width:.11761;fill:#cccccc" d="m321.99 247.32c1.96-0.52 3.96-1.24 5.58-0.48l0.02-5.25-5.6 5.73z"/>
      <path id="path3155" style="fill-rule:evenodd;stroke:#000000;stroke-width:.11761;fill:#333333" d="m300.83 853.45c1.11-3.4 4.58-1.53 7.61-4.87 5.07-7.94 7.17-17.34 8.98-28.55 3.4-21.02 5.83-42.8 7.23-64.71 0.94-142.4 0.2-288.92-1.01-432.13-0.04-0.25 0.71-0.24 0.71-0.52 0.04-2.16 1.45-5.07 1.23-7.26-0.06-0.61-2.76-0.47-2.81-1.09-1.1-13.41-0.12-29.93 1.4-43.48 0.42-0.2 0.55-1.11 0.65-1.95 0.3-2.5 0.3-5.07 0.61-7.32 1.06-20.99 2.27-42.96 3.55-65.29 0.72-5.7 1.66-11.32 3.49-16.58 5.31-9.92 18.07-8.14 22.06 0.01 2.44 5.73 2.33 11.35 3.14 16.48 2.01 27.63 1.81 38.08 3.03 65.32-1.53 1.78-0.9 5.13-0.52 8.33 0.05 0.38 1.48 0.51 1.52 0.91 1.35 12.03 2.4 30.57 0.33 43.37-0.07 0.38-2.51 0.29-2.55 0.67-0.26 2.52 0.07 5.96 0.22 8.13 0.02 0.3 1.69-0.16 1.63 0.12-0.16 144.61 1.91 288.15 2.87 432.15 2.72 20.93 4.49 42.2 8.79 62.98 1.84 9.84 3.57 19.7 8.94 28.92 3.12 1.1 5.62 2 7.04 3.51 1.08 1.5 1.13 2.85 0.16 4.04-9.95 12.46-76.02 12.36-86.92 1.61-0.45-0.95-1.9-2.24-1.38-2.8z"/>
      <path id="path3158" style="fill-rule:evenodd;stroke:#000000;stroke-width:.11761;fill:#cccccc" d="m334.07 177l-0.18 34.07c5.84 3.79 12.06 4.38 18.87-0.23l0.44-33.77c-4.33-5.1-14.32-5.09-19.13-0.07z"/>
      <path id="path3177" style="fill-rule:evenodd;color:#000000;stroke:#000000;stroke-width:.11761;fill:#e6e6e6" d="m326.55 237.34s-1.92-2.46-4.64-2.93c-7.95-1.37-7.34 16-0.97 13.76 5.09-1.79 5.3-4.48 5.56-6.5 0.21-1.68 0.01-4.33 0.05-4.33z"/>
      <path id="path3160" style="fill-rule:evenodd;stroke:#000000;stroke-width:.11761;fill:#cccccc" d="m342.78 216.04c-5.34 0.05-10.6 0.28-15.8 0.6-0.18 2.53-0.21 5.01-0.19 7.45 1.44 0.17 3.05 0.12 4.58 0.14-2.31 4.93-1.95 9.42-1.04 13.9-1.47-0.03-2.93-0.05-4.47 0.04-0.34 3.2-0.42 6.19-0.43 9.16 11.56 0.25 23.2 0.11 34.88-0.2 0.03-2.83 0.12-5.64-0.04-8.51-1.15-0.14-3.02-0.14-4.58-0.1 0.68-4.15 2.15-7.8-0.89-13.87 1.59 0.03 3.19-0.03 4.75-0.13-0.05-2.7-0.13-5.41-0.41-8.03-5.59-0.4-11.02-0.51-16.36-0.45zm-1.88 0.88c1.82-0.25 3.39-0.14 4.93-0.01 0.35 0 0.62 0.27 0.62 0.62l-0.01 3.44c0 0.35-0.27 0.62-0.62 0.62-1.67 0.23-3.33 0.4-4.93 0.02-0.35 0-0.62-0.27-0.62-0.62l0.01-3.45c0-0.34 0.27-0.61 0.62-0.62zm2.3 5.39c5.23-0.02 9.45 4.28 9.43 9.57-0.01 5.28-4.26 9.58-9.48 9.59-5.22 0.02-9.44-4.25-9.43-9.54 0.02-5.28 4.26-9.61 9.48-9.62zm-2.61 20c1.78-0.23 3.56-0.18 5.34-0.02 0.35 0 0.62 0.3 0.62 0.65l-0.01 3.12c0 0.35-0.27 0.65-0.62 0.65-1.74 0.09-3.49 0.19-5.34 0.01-0.35 0-0.62-0.29-0.62-0.64l0.01-3.12c0-0.35 0.27-0.65 0.62-0.65z"/>
      <path id="path3185" style="fill-rule:evenodd;color:#000000;stroke:#000000;stroke-width:.11761;fill:#cccccc" d="m324.72 262.11c12.1-0.28 24.44-0.4 36.43-0.35 0.22 0.03 0.07 0.57 0 0.83-0.29 0.21-0.59 0.38-0.92 0.42 0.24 0.15 0.45 0.32 0.91 0.36 0.14 0.39 0.11 0.62 0 0.77-0.25 0.23-0.54 0.41-0.91 0.48 0.17 0.29 0.54 0.5 0.91 0.71 0.06 0.47 0.09 0.92-0.01 1.31-0.25 0.24-0.58 0.23-0.91 0.24 0.27 0.18 0.31 0.45 0.79 0.48 0.11 0.38 0.05 0.63 0 0.89l-0.79 0.36c0.4 0.04 0.78 0.09 0.91 0.29 0.22 0.62 0.21 1.16 0.2 1.7-12.09 0.23-24.79 0.32-37.04 0.08-0.04-0.55 0.07-1.02 0.18-1.49 0.19-0.32 0.53-0.36 0.83-0.48-0.28-0.09-0.55-0.06-0.83-0.41-0.03-0.3-0.05-0.6 0-0.82 0.13-0.31 0.49-0.43 0.83-0.57-0.31-0.08-0.72-0.01-0.83-0.39l0.05-0.9c0.08-0.32 0.38-0.41 0.79-0.4-0.28-0.15-0.47-0.09-0.75-0.49l0.01-0.89c0.23-0.36 0.46-0.26 0.74-0.31-0.05-0.23-0.18-0.31-0.59-0.58-0.2-0.07-0.27-0.68 0-0.84z"/>
      <path id="path3188" style="fill-rule:evenodd;color:#000000;stroke:#000000;stroke-width:.11761;fill:#cccccc" d="m323.55 323.09c12.1 0.21 26.02 0.21 38.01 0.08 0.22-0.03 0.06-1.11-0.02-1.38-0.29-0.2-0.69-0.43-1.02-0.48 0.25-0.15 0.56-0.15 1.02-0.19 0.14-0.39-0.02-0.74-0.12-0.9-0.17-0.23-0.52-0.45-0.91-0.47 0.17-0.29 0.71-0.15 1.08-0.36 0.07-0.47 0.13-0.69 0.05-1.08-0.26-0.24-0.59-0.23-0.92-0.23 0.27-0.19 0.31-0.45 0.8-0.49 0.1-0.37 0.14-0.63 0.09-0.88 0.04-0.24-0.41-0.29-0.8-0.36 0.4-0.04 0.7-0.1 0.83-0.3 0.23-0.62 0.22-1.16 0.22-1.7-12.1-0.15-26.75-0.16-39 0.16-0.05 0.54 0.06 1.01 0.16 1.48 0.2 0.32 0.53 0.36 0.83 0.48-0.27 0.09-0.55 0.06-0.83 0.41-0.03 0.31-0.05 0.6 0 0.83 0.12 0.3 0.49 0.42 0.83 0.56-0.31 0.09-0.73 0.01-0.83 0.4l0.04 0.89c0.07 0.32 0.37 0.42 0.78 0.4-0.27 0.15-0.47 0.1-0.75 0.49v0.9c0.24 0.35 0.46 0.25 0.75 0.3-0.06 0.23-0.2 0.19-0.62 0.46-0.2 0.07 0.06 0.83 0.33 0.98z"/>
      <path id="path3192" style="fill-rule:evenodd;color:#000000;stroke:#000000;stroke-width:.11761;fill:#e6e6e6" d="m307.43 849.67c-1.03-0.03-8.67 0.24-10.26 7.61 0.05 9.71 23.01 13 35.41 13.6 10.7 0.6 21.63 0.04 31-1.19 9.88-1.64 21.41-2.01 30.23-10.52 0.88-1.1 1.31-2.34 0.85-3.88-2.21-7.21-11.15-8.07-12.71-8.22 2.68 2.04 8.78 3.14 7.72 6.89-1.04 2.13-3.55 3.05-5.75 4.23-6.43 2.41-13.84 3.4-20.99 4.77-12.4 1.27-24.44 1.43-36.92 0.29-7.31-0.3-27.72-4.13-24.13-10.36 1.36-1.88 3.83-2.27 5.55-3.22z"/>
      <path id="path3195" style="fill-rule:evenodd;color:#000000;stroke:#000000;stroke-width:.11761;fill:#e6e6e6" d="m324.4 755.02c4.8 6.34 39.73 2.76 40.05-0.6 0.49 0.53 1.48 9.26 1.15 10.58-4.82 4.54-35.83 5.94-41.7 0.97-0.67-0.68 0.08-9.92 0.5-10.95z"/>
      <g id="g3395" transform="matrix(.93961 -.0029108 -.0027687 .94223 -30.011 58.544)">
        <path id="path3283" style="stroke-linejoin:round;stroke:#000000;stroke-linecap:square;stroke-width:.125;fill:#cccccc" d="m412.13 365.56a3.1549 3.0381 0 1 1 -6.31 0 3.1549 3.0381 0 1 1 6.31 0z" transform="matrix(1.2482 0 0 1.2482 -102.99 -90.06)"/>
        <path id="path3279" style="stroke-linejoin:round;stroke:#000000;stroke-linecap:square;stroke-width:.125;fill:#cccccc" d="m394.99 366.52a3.6223 3.6418 0 1 1 -7.25 0 3.6223 3.6418 0 1 1 7.25 0z" transform="matrix(1.1638 0 0 1.1638 -63.868 -60.089)"/>
        <path id="path3285" style="fill-rule:evenodd;color:#000000;stroke:#000000;stroke-width:.125;fill:#cccccc" d="m393.04 364.24c5.14 0.59 10.09 0.43 13.91-0.05l0.11 4.14c-1.39-0.52-11.85-0.5-14.03 0.32-0.18 0.07 0.01-4.41 0.01-4.41z"/>
        <path id="path3198" style="stroke-linejoin:round;stroke:#000000;stroke-linecap:square;stroke-width:.125;fill:#cccccc" d="m407.6 343.99a7.3236 7.3236 0 1 1 -14.65 0 7.3236 7.3236 0 1 1 14.65 0z" transform="translate(-1.0102)"/>
        <path id="path3206" style="stroke-linejoin:round;stroke:#000000;stroke-linecap:square;stroke-width:.125;fill:#cccccc" d="m407.6 343.99a7.3236 7.3236 0 1 1 -14.65 0 7.3236 7.3236 0 1 1 14.65 0z" transform="matrix(.91831 0 0 .91831 28.315 63.105)"/>
        <path id="path3267" style="fill-rule:evenodd;color:#000000;stroke:#000000;stroke-width:.125;fill:#cccccc" d="m396.6 350.71c-0.08 1.09 1.04 1.22 0.99 1.66-0.55 0.74-0.65 2.16-0.94 3.3l1.16 3.09 0.55 13.55c-1.28 4.77-3.42 9.71-3.85 14.32-0.04 3.84 1.92 9.41 4.4 9.47 7.46-0.32 8.07-7.48 7.6-13.33-0.34-2.95-2.33-6.28-4.51-8.15l-0.66-14.87 0.93-2.1 0.61-2.42-0.77-2.75c-0.25-0.78-0.89-0.86-0.99-2.1-1.23-16.73-4.02-11.09-4.52 0.33z"/>
        <path id="path3339" style="fill-rule:evenodd;color:#000000;stroke:#000000;stroke-width:.125;fill:#999999" d="m375.63 518.21c1.11 0.46 2.04-0.54 3.12-0.7 3.46-0.49 3.5 3.33 3.35 5.92l-0.86 3.11-5.22-1.56-0.39-6.77z"/>
        <path id="path3387" style="fill-rule:evenodd;color:#000000;stroke:#000000;stroke-width:.125;fill:#e6e6e6" d="m378.42 562.56c4 4.24 8.98 4.94 13.99 5.51l5.84 0.77c1.36 0.64 1.09 1.43 0.88 2.21-6.67 0.92-16.45 1.2-23.35-3.53l-3.06-2.09c-1.61-0.1-1.28-1.68-0.5-1.68l6.2-1.19z"/>
        <path id="path3341" style="fill-rule:evenodd;color:#000000;stroke:#000000;stroke-width:.125;fill:#999999" d="m376.1 526.89l2.06-0.08 0.9 50.25 0.62 9.27-1.17-6.47-2.3-11.33-0.11-41.64z"/>
        <path id="path3393" style="fill-rule:evenodd;color:#000000;stroke:#000000;stroke-width:.125;fill:#999999" d="m377.1 436.64l0.33 26.44s1.65-0.66 1.54-1.21 0.99-19.94 0.99-19.94l-2.86-5.29z"/>
        <path id="path3355" style="fill-rule:evenodd;color:#000000;stroke:#000000;stroke-width:.125;fill:#b3b3b3" d="m375.12 430.47c0.95 0.04 1.91 0.57 2.86-0.77 2.28 0.35 2.83 1.43 3.09 2.65 0.65 2.67-0.36 4.67-2.65 6.17-0.92-0.51-1.87-0.92-3.08-0.56l-0.22-7.49z"/>
        <path id="path3385" style="fill-rule:evenodd;color:#000000;stroke:#000000;stroke-width:.125;fill:#e6e6e6" d="m356.86 497.87c0.08-2.44 2.62-4.07 3.03-3.81l1.66 0.25c5.06 0.6 7.76 9.89 3.41 10.81-4.34 0.09-7.82-2.66-8.1-7.25z"/>
        <path id="path3367" style="fill-rule:evenodd;color:#000000;stroke:#000000;stroke-width:.125;fill:#e6e6e6" d="m363.17 466.4c-0.84 1.27-1.19 2.37-2.57 3.82l-1.33 1.48 0.08 5.61c1.5 1.93 1.43 4.38 1.05 6.66-2.03 0.95-2.13 2.47-1.05 4.09l0.16 6.47c0.15 0.82 1.79 0.79 2.18 0.38-0.18-3.95-0.4-8.45 1.87-12.38 4.83-6.46 7.76-9.87 9.11-8.96l0.31-14.33-9.81 7.16z"/>
        <path id="path3363" style="fill-rule:evenodd;stroke:#000000;stroke-width:.125;fill:#e6e6e6" d="m364.1 466.71c-1.06 2.17-1.76 4.61-4.52 4.83l-0.15 6.08c2.6 0.09 6.11 0.48 7.01 0 3.02-1.72 0.93-7.48 1.4-11.22l-3.74 0.31z"/>
        <path id="path3291" style="stroke-linejoin:round;stroke:#000000;stroke-linecap:square;stroke-width:.125;fill:#cccccc" d="m378.53 312.43a2.4787 6.9956 0 1 1 -4.96 0 2.4787 6.9956 0 1 1 4.96 0z"/>
        <path id="path3343" style="fill-rule:evenodd;color:#000000;stroke:#000000;stroke-width:.125;fill:#e6e6e6" d="m372.9 321.13l0.16 3.54-0.16 14.17c-0.12 1.41-1 1.61-1.59 2.26l-0.98 25.86c-0.04 2.39-2.41 3.81-3.54 5.54-1.09 1.19-1.56 8.02-1.13 9.27 0.94 2.76 2.93 4.72 3.58 6.77 0.75 3.35 0.84 6.43 1.09 9.58-0.1 3.46-1.74 6.43-3.23 9.39l-1.28 2.3c-0.79 1.06-0.63 5.39 0.03 6.78 1.65 2.47 2.62 4.99 2.3 7.94-0.59 2.41-2.24 4.06-3.11 6.16-0.57 2.01-0.38 3.52-0.35 5.14 0.21 3.16 2.4 3.72 2.84 5.76 0.33 2.07 0.66 4.3-0.04 6.2-0.12 0.58-1.1 0.3-1.13 1.12-0.16 1.89-0.34 3.78 0 5.77 0.25 1.25 0.11 2.34-0.16 3.39-1.14 3.65-3.75 4.78-7.2 4.09l-0.04 6c3.1 0.39 8.45 0.66 9.08 0.11 3.12-2.64 3.67-7.09 4.63-11.29l1.25-83.24 4.44-5.96-0.73-48.22-1.6-0.29c0.39-5.36 0.2-11.85-0.29-12.11-0.94 0.29-2.51 8.9-2.84 13.97z"/>
        <path id="path3295" style="fill-rule:evenodd;color:#000000;stroke:#000000;stroke-width:.125;fill:#e6e6e6" d="m379.75 305.31l-3.69 0.13c1.37 0 2.47 3.14 2.47 7s-1.1 7-2.47 7l3.35 0.53c4.7-3.97 4.72-13.19 0.34-14.66z"/>
        <path id="path3391" style="fill-rule:evenodd;color:#000000;stroke:#000000;stroke-width:.125;fill:#cccccc" d="m375.67 449.97l3.52 2.21 0.11 2.42-1.87 0.33 0.11 6.28 0.77 15.42 1.76 2.87 0.66 6.94 0.23 5.84-2.54 3.74-1.21-2.64-0.22-17.63-1.32-25.78z"/>
        <path id="path3321" style="fill-rule:evenodd;color:#000000;stroke:#000000;stroke-width:.125;fill:#e6e6e6" d="m371.04 372.97l1.65 215.59 4.74 0.33-1.54-217.47-4.85 1.55z"/>
        <path id="path3327" style="fill-rule:evenodd;color:#000000;stroke:#000000;stroke-width:.125;fill:#b3b3b3" d="m382.12 408.53c3.08 0.67 4.63 8.11 0.19 9.39-1.05-1.95-2.7-2.94-4.06-4.41 1.32-1.64 3.2-2.97 3.87-4.98z"/>
        <path id="path3299" style="fill-rule:evenodd;color:#000000;stroke:#000000;stroke-width:.125;fill:#cccccc" d="m370.05 405.91c14.69 0.39 16.41 0 16.41 0 1.95-0.48 2.85-1.48 3.64-2.54v9.7c-1.14-0.96-1.89-2.47-3.42-2.87-5.87-0.75-11.13-0.58-16.63-0.77-2.11-0.1-2.25-3.48 0-3.52z"/>
        <path id="path3204" style="stroke-linejoin:round;stroke:#000000;stroke-linecap:square;stroke-width:.125;fill:#cccccc" d="m407.6 343.99a7.3236 7.3236 0 1 1 -14.65 0 7.3236 7.3236 0 1 1 14.65 0z" transform="matrix(1.2317 0 0 1.2919 -95.582 -36.255)"/>
        <path id="path3202" style="stroke-linejoin:round;stroke:#000000;stroke-linecap:square;stroke-width:.125;fill:#000000" d="m407.6 343.99a7.3236 7.3236 0 1 1 -14.65 0 7.3236 7.3236 0 1 1 14.65 0z" transform="matrix(.95409 0 0 .95942 15.587 77.87)"/>
        <path id="path3303" style="fill-rule:evenodd;color:#000000;stroke:#000000;stroke-width:.125;fill:#cccccc" d="m370.27 377.92c4.85 1 16.29 1.69 19.83 0.22 9.25-0.85 5.17 2.95 0.11 3.86-3.25-1.18-15.05-0.99-20.01 0.13-2.61-0.63-2.64-3.69 0.07-4.21z"/>
        <path id="path3309" style="fill-rule:evenodd;color:#000000;stroke:#000000;stroke-width:.125;fill:#666666" d="m410.69 416.53c-5.4 3.61-4.36 13.24-0.31 15.38 0.39-0.48 0.92-0.76 1.5-0.94-1.47-1.41-2.44-3.74-2.44-6.38 0-3.12 1.34-5.79 3.28-7.03-0.66-0.17-1.35-0.45-2.03-1.03z"/>
        <path id="path3307" style="fill-rule:evenodd;color:#000000;stroke:#000000;stroke-width:.125;fill:#cccccc" d="m371.26 421.48l38.89 1.17-0.33 3.86-38.34-0.55c-2.9-0.85-2.34-4.1-0.22-4.48z"/>
        <path id="path3357" style="fill-rule:evenodd;color:#000000;stroke:#000000;stroke-width:.125;fill:#808080" d="m419.07 431.35l-3.63-0.22c-0.44 1.66-0.96 4.24 0.55 6.17 1.28-1.25 1.91-1.28 3.19-1.43l-0.11-4.52z"/>
        <path id="path3208" style="stroke-linejoin:round;stroke:#000000;stroke-linecap:square;stroke-width:.125;fill:#cccccc" d="m407.6 343.99a7.3236 7.3236 0 1 1 -14.65 0 7.3236 7.3236 0 1 1 14.65 0z" transform="matrix(.77592 0 0 1.0618 104.54 59.372)"/>
        <path id="path3311" style="fill-rule:evenodd;color:#000000;stroke:#000000;stroke-width:.125;fill:#cccccc" d="m370.27 439.18c5.73 0.39 11.32 0.87 16.22 0.23 2.67-1.09 3.65-3.02 5.48-4.53l-0.87 13.34c-0.7-1.43-3.21-3.7-4.67-3.91-6.02-1.11-10.8-0.94-16.82-1.28-2.03-0.72-2.05-3.8 0.66-3.85z"/>
        <path id="path3218" style="stroke-linejoin:round;stroke:#000000;stroke-linecap:square;stroke-width:.125;fill:#cccccc" d="m407.6 343.99a7.3236 7.3236 0 1 1 -14.65 0 7.3236 7.3236 0 1 1 14.65 0z" transform="matrix(1.2617 0 0 1.2917 -107.35 -2.4026)"/>
        <path id="path3216" style="stroke-linejoin:round;stroke:#000000;stroke-linecap:square;stroke-width:.125;fill:#000000" d="m407.6 343.99a7.3236 7.3236 0 1 1 -14.65 0 7.3236 7.3236 0 1 1 14.65 0z" transform="matrix(.95409 0 0 .95942 15.587 111.68)"/>
        <path id="path3220" style="stroke-linejoin:round;stroke:#000000;stroke-linecap:square;stroke-width:.125;fill:#000000" d="m408.27 470.96a6.8941 6.6604 0 1 1 -13.79 0 6.8941 6.6604 0 1 1 13.79 0z"/>
        <path id="path3313" style="fill-rule:evenodd;color:#000000;stroke:#000000;stroke-width:.125;fill:#e6e6e6" d="m371.92 501.97c1.57 0.07 12.86 0.69 19.61 0l-0.11 4.74c-6.42-1.09-14.98 0-19.39-0.22-2.08-0.04-1.88-4.61-0.11-4.52z"/>
        <path id="path3222" style="stroke-linejoin:round;stroke:#000000;stroke-linecap:square;stroke-width:.125;fill:#cccccc" d="m406.71 504.3a8.1015 8.2963 0 1 1 -16.2 0 8.1015 8.2963 0 1 1 16.2 0z"/>
        <path id="path3315" style="fill-rule:evenodd;color:#000000;stroke:#000000;stroke-width:.125;fill:#cccccc" d="m372.11 522.02c1.3 0.48 3.41 0.88 4.86 0.78 2.23 1.14 5.49 0.32 8.28 0.32 2.3-0.76 3.77-2.9 5.62-4.4l-0.77 13.11c-1.45-1.6-2.72-3.36-4.88-4.33-2.48-0.32-5.41-0.72-8.21-0.16-0.79 0.93-3.45 0.95-4.74 0.71-1.62-0.3-4.98-3.95-0.16-6.03z"/>
        <path id="path3230" style="stroke-linejoin:round;stroke:#000000;stroke-linecap:square;stroke-width:.125;fill:#cccccc" d="m407.6 343.99a7.3236 7.3236 0 1 1 -14.65 0 7.3236 7.3236 0 1 1 14.65 0z" transform="matrix(1.506 0 0 1.5396 -204.29 -3.5779)"/>
        <path id="path3228" style="stroke-linejoin:round;stroke:#000000;stroke-linecap:square;stroke-width:.125;fill:#000000" d="m407.6 343.99a7.3236 7.3236 0 1 1 -14.65 0 7.3236 7.3236 0 1 1 14.65 0z" transform="matrix(1.1666 0 0 1.1434 -68.36 132.43)"/>
        <path id="path3317" style="fill-rule:evenodd;color:#000000;stroke:#000000;stroke-width:.125;fill:#cccccc" d="m371.37 553.31c4.54 0.47 9.07 1.04 13.77 0.22 1.98-0.56 3.31-2.42 4.96-3.64l-0.88 11.68c-1.3-1.32-2.17-3.06-4.06-3.79-4.29-1.19-8.96-0.46-13.57-0.06-3.34-0.37-2.82-4.27-0.22-4.41z"/>
        <path id="path3234" style="stroke-linejoin:round;stroke:#000000;stroke-linecap:square;stroke-width:.125;fill:#cccccc" d="m407.6 343.99a7.3236 7.3236 0 1 1 -14.65 0 7.3236 7.3236 0 1 1 14.65 0z" transform="matrix(1.506 0 0 1.5396 -204.29 26.258)"/>
        <path id="path3232" style="stroke-linejoin:round;stroke:#000000;stroke-linecap:square;stroke-width:.125;fill:#000000" d="m407.6 343.99a7.3236 7.3236 0 1 1 -14.65 0 7.3236 7.3236 0 1 1 14.65 0z" transform="matrix(1.1666 0 0 1.1434 -68.36 162.27)"/>
        <path id="path3333" style="fill-rule:evenodd;color:#000000;stroke:#000000;stroke-width:.125;fill:#b3b3b3" d="m378.97 588.56c7.16-9.18 9.72 11.16 0.84 4.14 0.16-1.72 0.24-2.47-0.84-4.14z"/>
        <path id="path3319" style="fill-rule:evenodd;color:#000000;stroke:#000000;stroke-width:.125;fill:#cccccc" d="m371.92 580.41c4.04 0.04 8.25 1.66 12.34 0.77 1.63-0.17 2.2-1.39 3.31-2.09l-0.12 9.03c-1.14-0.96-1.91-2.3-3.44-2.87-2.05-1.01-8.02-0.32-11.76-0.1-3.3-0.35-3-4.65-0.33-4.74z"/>
        <path id="path3238" style="stroke-linejoin:round;stroke:#000000;stroke-linecap:square;stroke-width:.125;fill:#cccccc" d="m407.6 343.99a7.3236 7.3236 0 1 1 -14.65 0 7.3236 7.3236 0 1 1 14.65 0z" transform="matrix(1.7592 0 0 1.761 -305.5 -21.686)"/>
        <path id="path3236" style="stroke-linejoin:round;stroke:#000000;stroke-linecap:square;stroke-width:.125;fill:#000000" d="m407.6 343.99a7.3236 7.3236 0 1 1 -14.65 0 7.3236 7.3236 0 1 1 14.65 0z" transform="matrix(1.3625 0 0 1.3713 -146.6 112.49)"/>
        <path id="path3200" style="stroke-linejoin:round;stroke:#000000;stroke-linecap:square;stroke-width:.125;fill:#cccccc" d="m407.6 343.99a7.3236 7.3236 0 1 1 -14.65 0 7.3236 7.3236 0 1 1 14.65 0z" transform="matrix(.94871 0 0 .94871 5.5026 28.754)"/>
        <path id="path3275" style="fill-rule:evenodd;color:#000000;stroke:#000000;stroke-width:.125;fill:#999999" d="m417.18 391.83c1.02 0.02 0.82 1.15 1.26 1.31 1.13 0.66 2.82-0.1 2.82-0.1l0.14 6.08c-0.85-0.2-1.82-0.27-2.9 0.11-0.5 0.65-0.62 1.18-1.27 1.07-2.07-2.71-1-8.07-0.05-8.47z"/>
        <path id="path3914" style="stroke-linejoin:round;stroke:#000000;stroke-linecap:square;stroke-width:.125;fill:#b3b3b3" d="m413.96 335.77a3.3497 3.5055 0 1 1 -6.7 0 3.3497 3.5055 0 1 1 6.7 0z" transform="translate(-.62319)"/>
        <path id="path3916" style="fill-rule:evenodd;color:#000000;stroke:#000000;stroke-width:.125;fill:#cccccc" d="m410.33 332.79c1.3 0.21 1.78 1.34 3.39 0.56-1.23 1.76-0.2 2.1-0.33 3.88-0.79-0.25-1.28 0.78-2.76 1.2-3.59 0.53-4.29-5.31-0.3-5.64z"/>
        <path id="path3271" style="stroke-linejoin:round;stroke:#000000;stroke-linecap:square;stroke-width:.125;fill:#b3b3b3" d="m419.4 374.23a3.4152 3.3601 0 1 1 -6.83 0 3.4152 3.3601 0 1 1 6.83 0z" transform="matrix(0.999 0 0 1.1137 -5.2012 -42.839)"/>
        <path id="path3273" style="fill-rule:evenodd;color:#000000;stroke:#000000;stroke-width:.125;fill:#cccccc" d="m410.26 370.65c2.22 0.1 2.49 1.9 4.52 1.66v3.96c-1.6-0.85-3.1 0.76-4.3 0.66-3.59-0.62-3.51-5.3-0.22-6.28z"/>
        <path id="path3920" style="fill-rule:evenodd;color:#000000;stroke:#000000;stroke-width:.125;fill:#e6e6e6" d="m411.55 337.67c0.26 10.73 1.25 23.74 0.56 34.28 1.33 0.75 2.8 0.21 4.96-0.27v-2.5c4.85 1.77 4.75 6.37 5.14 10.13 0.15 3.95-1.89 5.28-2.8 10.13-1.72 8.81 0.41 13.67 2.18 15.89 1.05 1.08 2.17 1.83 3.43 1.87 2.12-0.26 3.61-3.84 4.05-4.99 1.19-1.41 1.79-14.03 1.71-14.64-0.05-3.93-3.86-13.86-4.32-14.84-0.54-1.6-6.17-11.21-6.43-11.8-1.35-5.27-1.51-15.92-2.18-15.89-0.82 0-1.61 0-2.02-0.2 0.17-0.07 0.47 0.02 0.5-0.23-0.07-2-0.25-4.1-0.19-5.96-1.47 0.25-4.17-0.98-4.59-0.98z"/>
        <path id="path3922" style="fill-rule:evenodd;color:#000000;stroke:#000000;stroke-width:.125;fill:#cccccc" d="m392.15 354.38c8.76-0.5 18.49-0.49 26.88-0.63 3.29 0.09 3.45 2.95 0.15 3.54-8.34 0.64-19.16 0.76-27.5 0.21-10.53-0.45-10.31-2.11 0.47-3.12z"/>
        <path id="path3240" style="stroke-linejoin:round;stroke:#000000;stroke-linecap:square;stroke-width:.125;fill:#cccccc" d="m417.54 336a3.2718 3.5834 0 1 1 -6.54 0 3.2718 3.5834 0 1 1 6.54 0z"/>
        <path id="path3269" style="stroke-linejoin:round;stroke:#000000;stroke-linecap:square;stroke-width:.125;fill:#cccccc" d="m419.4 374.23a3.4152 3.3601 0 1 1 -6.83 0 3.4152 3.3601 0 1 1 6.83 0z" transform="translate(-1.2118 -.11017)"/>
        <path id="path3926" style="stroke-linejoin:round;stroke:#000000;stroke-linecap:square;stroke-width:.125;fill:#b3b3b3" d="m394.99 366.52a3.6223 3.6418 0 1 1 -7.25 0 3.6223 3.6418 0 1 1 7.25 0z" transform="translate(-.35055 -.038950)"/>
        <path id="path3281" style="stroke-linejoin:round;stroke:#000000;stroke-linecap:square;stroke-width:.125;fill:#b3b3b3" d="m412.13 365.56a3.1549 3.0381 0 1 1 -6.31 0 3.1549 3.0381 0 1 1 6.31 0z" transform="translate(-.15580 .66214)"/>
        <path id="path3297" style="fill-rule:evenodd;color:#000000;stroke:#000000;stroke-width:.13057;fill:#e6e6e6" d="m372.21 322.18h7.95c2.22 2.8 2.17 6.31 0.11 8.4l-8.06-0.35v-8.05z"/>
        <path id="path3287" style="stroke-linejoin:round;stroke:#000000;stroke-linecap:square;stroke-width:.125;fill:#cccccc" d="m374.85 326.03a2.1033 3.7392 0 1 1 -4.2 0 2.1033 3.7392 0 1 1 4.2 0z" transform="matrix(.81860 0 0 1.0687 67.231 -22.14)"/>
        <path id="path3305" style="fill-rule:evenodd;color:#000000;stroke:#000000;stroke-width:.125;fill:#cccccc" d="m374.68 368.23c4.39 1.92 5.5-1.95 6.83-1.98 3.04 0.27 3.47 8.59 0.77 8.92-3.93-0.15-3.65-4.18-7.27-1.87l-0.33-5.07z"/>
        <path id="path3301" style="stroke-linejoin:round;stroke:#000000;stroke-linecap:square;stroke-width:.125;fill:#cccccc" d="m376.99 371.15a3.4152 3.5804 0 1 1 -6.83 0 3.4152 3.5804 0 1 1 6.83 0z" transform="matrix(1.0637 0 0 1.03 -24.554 -11.228)"/>
        <path id="path3325" style="stroke-linejoin:round;stroke:#000000;stroke-linecap:square;stroke-width:.125;fill:#cccccc" d="m382.39 413.67a3.2499 3.9109 0 1 1 -6.5 0 3.2499 3.9109 0 1 1 6.5 0z"/>
        <path id="path3323" style="stroke-linejoin:round;stroke:#000000;stroke-linecap:square;stroke-width:.125;fill:#e6e6e6" d="m377.21 413.62a3.6355 3.8558 0 1 1 -7.27 0 3.6355 3.8558 0 1 1 7.27 0z"/>
        <path id="path3331" style="fill-rule:evenodd;color:#000000;stroke:#000000;stroke-width:.125;fill:#999999" d="m375.68 587.3c1.38 1 3.98 0.43 5.08 0.04 3.59 0.79 2.72 5.15 1.01 5.91-1.33-0.51-3.24-0.25-4.56 0.67l-1.53-6.62z"/>
        <path id="path3329" style="stroke-linejoin:round;stroke:#000000;stroke-linecap:square;stroke-width:.125;fill:#b3b3b3" d="m378.64 590.93a3.966 4.0211 0 1 1 -7.93 0 3.966 4.0211 0 1 1 7.93 0z"/>
        <path id="path3337" style="fill-rule:evenodd;color:#000000;stroke:#000000;stroke-width:.125;fill:#b3b3b3" d="m378.03 571.77c0.93-0.75 1.86-0.84 2.98-0.92 2.57 0.29 1.43 5.52 0.19 5.65-0.57-0.05-1.08-0.32-1.43-1.1-0.25-0.3-0.87-0.3-1.49-0.31l-0.25-3.32z"/>
        <path id="path3335" style="fill-rule:evenodd;color:#000000;stroke:#000000;stroke-width:.125;fill:#cccccc" d="m369.15 573.56c-0.05-1.83 2.12-2.09 3.38-2.44 1.69 0.96 3.09 0.93 4.88 0.37 2.46 0.54 1.35 4.47-0.02 4.8-3.13 0.15-7.5 0.27-8.24-2.73z"/>
        <path id="path3345" style="fill-rule:evenodd;color:#000000;stroke:#000000;stroke-width:.125;fill:#e6e6e6" d="m355.39 467.72c0.82 0.94 1.57 1.35 2.57 1.75 1.33 0.26 1.88-1.38 2.25-2.44 0.1-1.6 0.01-3.22-0.47-4.9-2.86-5.79-8.64 1.11-4.35 5.59z"/>
        <path id="path3359" style="fill-rule:evenodd;color:#000000;stroke:#000000;stroke-width:.125;fill:#b3b3b3" d="m416.76 451.96v4.73l3.19-0.55-0.33-3.74-2.86-0.44z"/>
        <path id="path3361" style="fill-rule:evenodd;color:#000000;stroke:#000000;stroke-width:.125;fill:#808080" d="m419.95 459.56c-1.62 0.4-3.25 1.26-4.38 0.26-0.31 1.77-0.41 3.53 0.09 6.02 0.14 0.64 0.44 1.07 1.1 0.99 0.66-1.61 1.57-2.73 2.75-3.31l0.44-3.96z"/>
        <path id="path3347" style="fill-rule:evenodd;color:#000000;stroke:#000000;stroke-width:.125;fill:#cccccc" d="m418.3 435.76l5.12 0.11 0.06 23.8-4.3 0.11-0.88-24.02z"/>
        <path id="path3349" style="fill-rule:evenodd;color:#000000;stroke:#000000;stroke-width:.125;fill:#b3b3b3" d="m419.18 459.12l4.19 0.11c2.85 4.28 1.01 6.47-1.65 6.39-3.81-0.14-4-2.16-2.54-6.5z"/>
        <path id="path3351" style="fill-rule:evenodd;color:#000000;stroke:#000000;stroke-width:.125;fill:#b3b3b3" d="m421.28 430.36c-5.11-0.31-3.67 4.86-3.01 6.12 1.77-0.19 3.45-0.1 5.14-0.04 2.42-1.58 2.47-5.63-2.13-6.08z"/>
        <path id="path3353" style="fill-rule:evenodd;color:#000000;stroke:#000000;stroke-width:.125;fill:#cccccc" d="m393.07 459.56c-0.17-0.69 0.26-1.22 0.66-1.77 5.42-2.6 14.47-4.31 20.72-9.14 1.22-1.26 2.55-2.47 2.64-4.3l0.77-7.16c0.17-0.63 2.67-0.78 2.87 0l0.77 5.84c0.48 0.57 1.74 0.5 2.64 0.66 1.41 0.43 1.34 1.89 0.16 2.73-0.84 0.36-2.12 0.16-2.86 1.46-2.39 5.21-6.98 6.6-10.85 9.25-3.79 1.65-6.25 3.18-15.75 3.42-0.71-0.13-1.61 0.09-1.77-0.99z"/>
        <path id="path3365" style="fill-rule:evenodd;color:#000000;stroke:#000000;stroke-width:.125;fill:#e6e6e6" d="m355.38 470.3c-1.86 0.33-3.72 6.16 1.01 8.26 3.01 0.26 3.18-1.14 3.82-2.26l0.15-3.9c-1.47-1.85-2.63-2.19-4.98-2.1z"/>
        <path id="path3369" style="fill-rule:evenodd;color:#000000;stroke:#000000;stroke-width:.125;fill:#e6e6e6" d="m362.39 482.76c4.91 0.76 5.75 3.87 3.81 8.57-2.16 1.42-3.93 1.48-5.06-0.62-0.81-1.2-0.69-2.39-0.7-3.59 0.08-1.77 0.42-3.4 1.95-4.36z"/>
        <path id="path3389" style="fill-rule:evenodd;color:#000000;stroke:#000000;stroke-width:.125;fill:#e6e6e6" d="m375.34 496.24c2.22-0.7 4.42-1.51 5.18-2.8l1.87 2.25-0.62 6.57c-1.44-0.9-2.91-2.12-5.22-1.28l-1.21-4.74z"/>
        <path id="path3371" style="fill-rule:evenodd;color:#000000;stroke:#000000;stroke-width:.125;fill:#e6e6e6" d="m371.78 495.14l5.25 0.1c1.13 0.03 1.28 6.56 0.07 6.66l-5.36-0.16c-1.45-0.42-1.63-6.1 0.04-6.6z"/>
        <path id="path3950" style="fill-rule:evenodd;color:#000000;stroke:#000000;stroke-width:.125;fill:#e6e6e6" d="m385.72 492.46c0.79 0.03 1 1.07 1.82-0.12 2.62-0.22 2.4 4.36-0.16 3.35-0.26-0.56-0.92-0.76-1.45-0.68l-0.21-2.55z"/>
        <path id="path3373" style="fill-rule:evenodd;color:#000000;stroke:#000000;stroke-width:.125;fill:#e6e6e6" d="m371.43 491.03c3.51-0.28 6.48 0.81 9.89 0.15 4.01-2.95 7.51 0.96 4.52 4.59l0.07 3.86c-0.15 0.78 0.43 0.91 0.63 2.65-2.03 0.52-4.69 0.62-6.74-0.03 0.5-0.36 1.14-0.63 1.21-1.42l0.07-5.14c-0.53-1.35-1.62-1.39-2.96-1.4-0.43 0.1-0.65 0.74-1.01 0.78l-5.46-0.16c-1.5-0.09-1.29-3.88-0.22-3.88z"/>
        <path id="path3381" style="fill-rule:evenodd;color:#000000;stroke:#000000;stroke-width:.125;fill:#e6e6e6" d="m379.76 462.04c0.72-0.03 1.42 0.07 2.34-1.17 4.54-0.46 3.95 5.51 1.79 6.47-0.6-0.99-1.61-1.46-3.04-1.4l-1.09-3.9z"/>
        <path id="path3383" style="fill-rule:evenodd;color:#000000;stroke:#000000;stroke-width:.125;fill:#cccccc" d="m381.36 469.83c0.57-0.06 0.97 0.39 1.83-0.51 0.89 1.11 1.05 1.89 1.01 3.12-0.3 0.88-1.25 0.99-1.91 1.36l-0.93-3.97z"/>
        <path id="path3379" style="fill-rule:evenodd;color:#000000;stroke:#000000;stroke-width:.125;fill:#e6e6e6" d="m382.11 465.56c-0.28 3.38 0.97 10.53 2.15 14.49 4.97 12.81 24.06 5.4 25.67 4.4 2.49-2.83 4.94-5.94 7.71-7.38 2.2-0.68 5.29-0.64 7.49 0.11 4.43 1.88 4.68 4.68 3.86 7.72-1.9 4.66-5.42 5.87-9.37 6.16-2.68 0.49-5.36 0.02-8.04-0.66-12.71 2.82-26.48 4.23-31.18-7.49-1.81-4.31-1.79-14.24-2.03-18.17-0.38-0.79-0.8-1.55-0.61-2.61 1.47-1.47 2.77-1.47 4.24-0.3 0.4 1.23 0.93 2.41 0.11 3.73z"/>
        <path id="path3377" style="fill-rule:evenodd;color:#000000;stroke:#000000;stroke-width:.125;fill:#e6e6e6" d="m382.92 467.82c0.38 0.1 0.17 1.47-0.15 1.61l-5.31-0.16c-0.58 0.01-0.69-1.49 0.15-1.51l5.31 0.06z"/>
      </g>
      <g id="g3669" transform="matrix(.93961 -.0029108 -.0027687 .94223 -30.011 58.544)">
        <path id="path3604" style="stroke-linejoin:round;stroke:#000000;stroke-linecap:square;stroke-width:.125;fill:#b3b3b3" d="m401.34 732.31a4.5182 4.5571 0 1 1 -9.04 0 4.5182 4.5571 0 1 1 9.04 0z" transform="translate(1.7917 -1.558)"/>
        <path id="path3606" style="stroke-linejoin:round;stroke:#000000;stroke-linecap:square;stroke-width:.125;fill:#cccccc" d="m401.34 732.31a4.5182 4.5571 0 1 1 -9.04 0 4.5182 4.5571 0 1 1 9.04 0z" transform="translate(1.7917 -9.3479)"/>
        <path id="path3623" style="fill-rule:evenodd;color:#000000;stroke:#000000;stroke-width:.125;fill:#b3b3b3" d="m405.93 626.17l-0.15 16.68-2.57-15.66 2.72-1.02z"/>
        <path id="path3575" style="fill-rule:evenodd;color:#000000;stroke:#000000;stroke-width:.125;fill:#ececec" d="m368.93 613.87c1.1 0.74 7.36-3.82 6.54-4.99l3.82 0.78c-0.98 1.72-1.88 3.48-1.63 5.61l-8.73-1.4z"/>
        <path id="path3573" style="fill-rule:evenodd;color:#000000;stroke:#000000;stroke-width:.125;fill:#e6e6e6" d="m380.38 610.83c-0.8 1.61-18.07-3.33-17.6-10.83 2.7-6.5 21.46-3.26 27.42 2.81l-9.82 8.02z"/>
        <path id="path3647" style="fill-rule:evenodd;color:#000000;stroke:#000000;stroke-width:.125;fill:#b3b3b3" d="m394.51 603.54c3.08-3.34 7.17-1.19 7.38 1.99l-7.38-1.99z"/>
        <path id="path3645" style="fill-rule:evenodd;color:#000000;stroke:#000000;stroke-width:.125;fill:#b3b3b3" d="m402.22 606.85c-0.04-3.77 1.66-4.83 4.71-4.85 2.97 0.19 0.51 3.01 4.49 3.53l-1.49 3.19-7.71-1.87z"/>
        <path id="path3643" style="fill-rule:evenodd;color:#000000;stroke:#000000;stroke-width:.125;fill:#e6e6e6" d="m408.72 609.93c0.99 0 4.29-0.33 4.29-0.33l0.55 34.49-5.06 1.76c0.62-14.75 0.14-23.94 0.22-35.92z"/>
        <path id="path3635" style="stroke-linejoin:round;stroke:#000000;stroke-linecap:square;stroke-width:.125;fill:#999999" d="m403.43 684.79a4.0762 4.6821 0 1 1 -8.15 0 4.0762 4.6821 0 1 1 8.15 0z" transform="translate(-.77116 .77116)"/>
        <path id="path3608" style="stroke-linejoin:round;stroke:#000000;stroke-linecap:square;stroke-width:.125;fill:#e6e6e6" d="m402.58 695.43a5.1414 5.1414 0 1 1 -10.28 0 5.1414 5.1414 0 1 1 10.28 0z" transform="matrix(.91027 0 0 .89511 36.128 71.15)"/>
        <path id="path3663" style="fill-rule:evenodd;color:#000000;stroke:#000000;stroke-width:.125;fill:#cccccc" d="m409.82 615.55c5.62 0.2 9.9 0.97 19.94-0.77 1.26-0.18 1.53 1.85 0.88 2.09-8.87 3.02-17.64 4.18-26.22 2.21-0.63 2.92-3.71 3.81-5.95 5.4l-19.72-3.97 1.1-5.62 7.49-1.43 22.48 2.09z"/>
        <path id="path3568" style="fill-rule:evenodd;color:#000000;stroke:#000000;stroke-width:.125;fill:#ececec" d="m369.22 612.97c-3.58 0.11-6.61 1.07-8.06 3.53-2.69 4.52 14.39 13.36 22.66 12.01 5.49 1.93 5.72 5.11 7.09 8.02 0 0 1.39 18.47 1.31 18.78s1.78 0 1.78 0l0.47 73.39 5.15 0.22-0.53-95.73c-0.76-5.55-2.7-10.76-9.43-14.66l0.06-0.06c-2.14-1.77-12.63-5.75-20.5-5.5z"/>
        <path id="path3621" style="stroke-linejoin:round;stroke:#000000;stroke-linecap:square;stroke-width:.125;fill:#e6e6e6" d="m407.18 625.01a3.3886 3.3497 0 1 1 -6.78 0 3.3886 3.3497 0 1 1 6.78 0z"/>
        <path id="path3566" style="fill-rule:evenodd;color:#000000;stroke:#000000;stroke-width:.125;fill:#e6e6e6" d="m374.07 619.63c0.02-3.43 18.53-4.65 29.29 5.69 2.53 2.57 3.17 25.68 2.96 39.96-2.52 0.76-3.7 0.48-5.22 0.23-0.39-9.63 0.02-21.08-1.32-30.53 0.05-1.35-1-2.15-2.18-2.88-8.56-0.66-23.54-0.26-23.53-12.47z"/>
        <path id="path3581" style="stroke-linejoin:round;stroke:#000000;stroke-linecap:square;stroke-width:.125;fill:#e6e6e6" d="m385.03 647.5a5.949 13.11 0 1 1 -11.9 0 5.949 13.11 0 1 1 11.9 0z" transform="matrix(.90790 0 0 1.0002 32.379 -.14525)"/>
        <path id="path3577" style="fill-rule:evenodd;color:#000000;stroke:#000000;stroke-width:.125;fill:#b3b3b3" d="m381.02 634.36c-1.36 0.02-2.79 0.11-4.09 0.06 2.72 0.67 4.84 6.25 4.84 13.03 0 7.24-2.38 13.16-5.36 13.16l5.49 0.28c5.4-2.41 7.23-22-0.88-26.53z"/>
        <path id="path3583" style="fill-rule:evenodd;color:#000000;stroke:#000000;stroke-width:.125;fill:#e6e6e6" d="m381.89 648.16c4.75 1.35 8.49 1.86 14.19 1.75 3.88 0.12 7.1-0.41 10.58-0.89 1.86-0.08 2.56 2.95 0.77 4.07-4.41 1.48-8.11 1.64-12.92 1.46-7.86-0.3-13.49-4.13-20.61-5.18-0.69-0.12-1.38-0.39-1.54-0.88 0-0.53 0.29-0.9 1.08-0.99 2.29 0.26 6.01 0.75 8.45 0.66z"/>
        <path id="path3585" style="stroke-linejoin:round;stroke:#000000;stroke-linecap:square;stroke-width:.125;fill:#e6e6e6" d="m407.49 667.34a3.7002 3.4665 0 1 1 -7.4 0 3.7002 3.4665 0 1 1 7.4 0z"/>
        <path id="path3587" style="stroke-linejoin:round;stroke:#000000;stroke-linecap:square;stroke-width:.125;fill:#e6e6e6" d="m382.06 715.53a6.9956 12.945 0 1 1 -13.99 0 6.9956 12.945 0 1 1 13.99 0z" transform="matrix(.74926 0 0 .99640 93.823 2.628)"/>
        <path id="path3595" style="fill-rule:evenodd;color:#000000;stroke:#000000;stroke-width:.125;fill:#cccccc" d="m379.86 702.21l-4.61 0.54c2.7 0.52 4.84 6.07 4.84 12.84 0 6.78-2.14 12.3-4.84 12.82l6.37 0.18c5.31-3 6.51-21.88-1.76-26.38z"/>
        <path id="path3600" style="fill-rule:evenodd;color:#000000;stroke:#000000;stroke-width:.125;fill:#cccccc" d="m372.2 715.84c5.29 0.66 10.45 1.87 16.13 0.78 4.44 0.55 7.07 1.31 5.92 2.49 1.52 1.15 3.72 0.52 5.84 0.08 1.59-0.15 2.14 0.41 2.49 1.09-0.7 0.21-1.42 0.48-2.33 1.71-6.18 2.13-7.14-1.18-11.38-1.63-8.35-1.31-14.13-2.8-16.67-4.52z"/>
        <path id="path3602" style="stroke-linejoin:round;stroke:#000000;stroke-linecap:square;stroke-width:.125;fill:#cccccc" d="m401.34 732.31a4.5182 4.5571 0 1 1 -9.04 0 4.5182 4.5571 0 1 1 9.04 0z"/>
        <path id="path3610" style="stroke-linejoin:round;stroke:#000000;stroke-linecap:square;stroke-width:.125;fill:#e6e6e6" d="m426.73 682.65a6.5435 13.866 0 1 1 -13.08 0 6.5435 13.866 0 1 1 13.08 0z" transform="matrix(.98844 0 0 .93836 4.78 42.934)"/>
        <path id="path3612" style="fill-rule:evenodd;color:#000000;stroke:#000000;stroke-width:.125;fill:#b3b3b3" d="m419.73 670.54c-1.88 0.15-5.08 0.1-5.65 0.45-10.6 8.5-3.42 24.43-0.11 26.01l6.3-0.44c-5.22-0.66-6.17-7.72-6.61-13.06 0-6.73 2.81-12.3 6.07-12.96z"/>
        <path id="path3617" style="fill-rule:evenodd;color:#000000;stroke:#000000;stroke-width:.125;fill:#e6e6e6" d="m392.46 685.61c0.16-0.89 1.14-1.29 2.33-1.56 3.38 0.06 4.74 0.32 10.23-0.26 5.54-1.09 12.7-1.13 19.06-0.98 0.52 0 0.68 0.1 0.47 0.31-3.95 0.64-8.11 2.15-12.06 3.82-3.25-0.13-6.85 0.27-10.3 0.75-0.55 1.1-0.58 1.16-1.94 1.04l-4.05-0.47c-1.32-0.79-3.35-0.75-3.74-2.65z"/>
        <path id="path3637" style="stroke-linejoin:round;stroke:#000000;stroke-linecap:square;stroke-width:.125;fill:#b3b3b3" d="m416.98 656.7a3.4702 3.3601 0 1 1 -6.94 0 3.4702 3.3601 0 1 1 6.94 0z"/>
        <path id="path3631" style="stroke-linejoin:round;stroke:#000000;stroke-linecap:square;stroke-width:.125;fill:#808080" d="m419.33 503.05a3.6613 3.856 0 1 1 -7.32 0 3.6613 3.856 0 1 1 7.32 0z" transform="matrix(.99901 0 0 1.1203 -2.2377 -60.972)"/>
        <path id="path3629" style="stroke-linejoin:round;stroke:#000000;stroke-linecap:square;stroke-width:.125;fill:#999999" d="m421.51 666.1a3.856 4.1676 0 1 1 -7.71 0 3.856 4.1676 0 1 1 7.71 0z" transform="matrix(.99927 0 0 1.0928 -3.5126 -61.647)"/>
        <path id="path3641" style="stroke-linejoin:round;stroke:#000000;stroke-linecap:square;stroke-width:.125;fill:#cccccc" d="m414.78 608.12a3.6355 2.9194 0 1 1 -7.27 0 3.6355 2.9194 0 1 1 7.27 0z"/>
        <path id="path3651" style="fill-rule:evenodd;color:#000000;stroke:#000000;stroke-width:.125;fill:#e6e6e6" d="m419.88 498.81c3.18-7.7 18.25-13.62 20.1-4.83-0.28 7.6-9.37 7.86-14.18 11.68l-5.92-6.85z"/>
        <path id="path3657" style="fill-rule:evenodd;color:#000000;stroke:#000000;stroke-width:.125;fill:#e6e6e6" d="m427.99 554.29c0.76 0.32 2.08 0.37 4.32-0.04 2.28-0.03 6.24 6.55-0.75 8.75-2.32-0.1-1.2-1.9-4.36-1.56l0.79-7.15z"/>
        <path id="path3655" style="stroke-linejoin:round;stroke:#000000;stroke-linecap:square;stroke-width:.125;fill:#ececec" d="m435.3 547.65a3.5055 3.9729 0 1 1 -7.01 0 3.5055 3.9729 0 1 1 7.01 0z"/>
        <path id="path3659" style="fill-rule:evenodd;color:#000000;stroke:#000000;stroke-width:.125;fill:#808080" d="m417.97 541.85c0.29 3.55 3.35 3.47 5.73 3.2-0.04 4.1-3.71 4.58-6.17 6.28l0.44-9.48z"/>
        <path id="path3653" style="fill-rule:evenodd;color:#000000;stroke:#000000;stroke-width:.125;fill:#ececec" d="m424.71 507.53c0.55-1.31 1.7-2.46 5.14-2.96 8.37 3.16 8.5 10.09 7.01 17.77-1.92 5.6-6.51 9.28-7.01 14.64-0.31 7.33 0.56 15.43-0.94 21.97-2.68 5.4-2.28 8.95-3.11 13.24l-0.78 51.41v6.08c0.02 1.63-0.7 2.88-2.03 3.27-0.88 0.17-1.76 0-2.65 0l0.94-77.74 3.12-7.64 0.31-40.04z"/>
        <path id="path3625" style="fill-rule:evenodd;color:#000000;stroke:#000000;stroke-width:.125;fill:#cccccc" d="m413.02 505.51l5.3-0.47 1.32 158.45-4.9 0.23-1.72-158.21z"/>
        <path id="path3627" style="stroke-linejoin:round;stroke:#000000;stroke-linecap:square;stroke-width:.125;fill:#e6e6e6" d="m421.51 666.1a3.856 4.1676 0 1 1 -7.71 0 3.856 4.1676 0 1 1 7.71 0z"/>
        <path id="path3619" style="fill-rule:evenodd;color:#000000;stroke:#000000;stroke-width:.125;fill:#e6e6e6" d="m400.73 658.27c-1.12 0.1-0.77 4.22 0 4.35 3.13-0.16 9.15-0.78 13.62-0.85 2.88 0.91 7.55 0.44 7.71-2.49-0.29-4.17-5.55-3-8.49-1.63-4.28 0.3-8.56 0.71-12.84 0.62z"/>
        <path id="path3633" style="stroke-linejoin:round;stroke:#000000;stroke-linecap:square;stroke-width:.125;fill:#cccccc" d="m419.33 503.05a3.6613 3.856 0 1 1 -7.32 0 3.6613 3.856 0 1 1 7.32 0z" transform="translate(-.38950)"/>
        <path id="path3649" style="fill-rule:evenodd;color:#000000;stroke:#000000;stroke-width:.125;fill:#e6e6e6" d="m418.16 634.67c1.19-0.27 2.79 0.56 2.81-2.81l0.62-10.44 1.25-25.7-0.31-21.97 4.98-24.46c0.79-15.31 0.6-30.29 0.16-45.18-0.17-3.14-0.28-7.24-6.86-7.64-7.12 0.72-6.31 7.79-6.39 12.47 0.38 7.9 5.14 10.79 8.11 15.73 1.02 6.18 1.91 13.61 0.62 20.41-0.79 1.14-3.48 5.3-4.85 4.25l-0.14 85.34z"/>
        <path id="path3639" style="stroke-linejoin:round;stroke:#000000;stroke-linecap:square;stroke-width:.125;fill:#cccccc" d="m415.22 646.51a3.6355 3.4152 0 1 1 -7.27 0 3.6355 3.4152 0 1 1 7.27 0z"/>
        <path id="path3665" style="fill-rule:evenodd;color:#000000;stroke:#000000;stroke-width:.125;fill:#ececec" d="m410.48 623.82c3.75 0.59 7.67 0.71 12.01-0.45 1.54-0.69 2.28-1.58 2.65-2.86 1.9-0.75 4.2 0.85 3.85 1.98-1 2.46-4.18 3.94-8.6 4.85l-10.79 1.65 0.88-5.17z"/>
        <path id="path3564" style="fill-rule:evenodd;color:#000000;stroke:#000000;stroke-width:.125;fill:#ececec" d="m378.09 604.21c2.95-7.58 23.49 0.06 32.05 5.43 1.63 1.7 0.76 5.99 0.55 8.95 0.08 3.23 0.7 0.38 0.88 6.99l0.61 13.53c-0.04 0.44-4.18 0.92-4.41 0.66-0.37-0.03-0.1-13.13-0.15-19.7-0.17-2.79-7.36-2.04-12.85-2.84-6.12-0.85-19.46-1.59-16.68-13.02z"/>
        <path id="path3661" style="fill-rule:evenodd;color:#000000;stroke:#000000;stroke-width:.125;fill:#ececec" d="m412.9 614.67c4.6 0.63 8.91-0.18 13.22-0.99 0.81-1.25 1.34-2.54 0.11-4.08-5.03 1.6-9.65 1.93-14.1 1.77l0.77 3.3z"/>
      </g>
    </g>
  </g>
  <metadata>
    <rdf:RDF>
      <cc:Work>
        <dc:format>image/svg+xml</dc:format>
        <dc:type rdf:resource="http://purl.org/dc/dcmitype/StillImage"/>
        <cc:license rdf:resource="http://creativecommons.org/licenses/publicdomain/"/>
        <dc:publisher>
          <cc:Agent rdf:about="http://openclipart.org/">
            <dc:title>Openclipart</dc:title>
          </cc:Agent>
        </dc:publisher>
        <dc:title>Clarinet Bb</dc:title>
        <dc:date>2008-04-07T11:08:41</dc:date>
        <dc:description>Clarinet Bb &#13;\nBased on a photograph</dc:description>
        <dc:source>https://openclipart.org/detail/16186/clarinet-bb-by-bobocal</dc:source>
        <dc:creator>
          <cc:Agent>
            <dc:title>bobocal</dc:title>
          </cc:Agent>
        </dc:creator>
        <dc:subject>
          <rdf:Bag>
            <rdf:li>clarinet</rdf:li>
            <rdf:li>how i did it</rdf:li>
            <rdf:li>instrument</rdf:li>
            <rdf:li>music</rdf:li>
          </rdf:Bag>
        </dc:subject>
      </cc:Work>
      <cc:License rdf:about="http://creativecommons.org/licenses/publicdomain/">
        <cc:permits rdf:resource="http://creativecommons.org/ns#Reproduction"/>
        <cc:permits rdf:resource="http://creativecommons.org/ns#Distribution"/>
        <cc:permits rdf:resource="http://creativecommons.org/ns#DerivativeWorks"/>
      </cc:License>
    </rdf:RDF>
  </metadata>
</svg>
